<?xml version="1.0" standalone="no"?><!DOCTYPE svg PUBLIC "-//W3C//DTD SVG 1.1//EN" "http://www.w3.org/Graphics/SVG/1.1/DTD/svg11.dtd"><svg t="1590733553624" class="icon" viewBox="0 0 1117 1024" version="1.1" xmlns="http://www.w3.org/2000/svg" p-id="25148" xmlns:xlink="http://www.w3.org/1999/xlink" width="218.1640625" height="200"><defs><style type="text/css"></style></defs><path d="M1079.575 842.007L653.498 83.782c-52.13-92.719-137.216-92.719-189.347 0L38.167 842.007c-52.13 92.905-9.495 168.495 94.58 168.495h852.341c104.076 0 146.711-75.59 94.58-168.495zM500.271 298.915a75.217 75.217 0 0 1 58.554-25.6c23.738 0 43.194 8.378 58.554 25.134a90.298 90.298 0 0 1 22.9 63.116c0 21.783-31.837 181.62-42.45 297.891h-76.52c-9.309-116.27-43.753-276.108-43.753-297.89-0.093-24.856 7.448-45.802 22.715-62.651z m115.99 552.867a78.29 78.29 0 0 1-57.436 24.203 78.29 78.29 0 0 1-57.437-24.203 79.5 79.5 0 0 1-24.11-58.461c0-22.714 8.005-42.45 24.11-58.927a77.452 77.452 0 0 1 57.437-24.669c22.155 0 41.332 8.192 57.437 24.67a81.827 81.827 0 0 1 24.017 58.926 79.686 79.686 0 0 1-24.017 58.46z" fill="#DF0404" p-id="25149"></path></svg>