<?xml version="1.0" standalone="no"?><!DOCTYPE svg PUBLIC "-//W3C//DTD SVG 1.1//EN" "http://www.w3.org/Graphics/SVG/1.1/DTD/svg11.dtd"><svg t="1590737484524" class="icon" viewBox="0 0 1024 1024" version="1.1" xmlns="http://www.w3.org/2000/svg" p-id="37637" xmlns:xlink="http://www.w3.org/1999/xlink" width="200" height="200"><defs><style type="text/css"></style></defs><path d="M971.264 921.302c9.407 0 17.015 7.668 17.015 17.123v68.465c0 9.442-7.62 17.11-17.015 17.11H52.748a17.063 17.063 0 0 1-17.027-17.122v-68.465c0-9.443 7.62-17.11 17.015-17.11h119.07V544.743c0-189.059 152.302-342.325 340.194-342.325 187.892 0 340.194 153.266 340.194 342.325v376.558h119.07zM488.186 0h35.721a35.72 35.72 0 0 1 35.72 35.72v59.536a35.72 35.72 0 0 1-35.72 35.72h-35.721a35.72 35.72 0 0 1-35.72-35.72V35.72A35.72 35.72 0 0 1 488.185 0zM221.529 80.134l25.553-14.717a35.72 35.72 0 0 1 48.747 13.062l31.541 54.498a35.72 35.72 0 0 1-13.097 48.843l-25.54 14.717a35.72 35.72 0 0 1-48.748-13.062l-31.541-54.499a35.72 35.72 0 0 1 13.097-48.842zM29.696 282.791l14.717-25.553a35.72 35.72 0 0 1 48.842-13.085l54.499 31.541a35.72 35.72 0 0 1 13.062 48.747l-14.717 25.553a35.72 35.72 0 0 1-48.843 13.085l-54.51-31.53a35.72 35.72 0 0 1-13.062-48.746z m846.55-7.097l54.499-31.541a35.72 35.72 0 0 1 48.842 13.097l14.717 25.54a35.72 35.72 0 0 1-13.062 48.748l-54.498 31.541a35.72 35.72 0 0 1-48.843-13.097l-14.717-25.54a35.72 35.72 0 0 1 13.062-48.748zM776.918 65.417l25.553 14.717a35.72 35.72 0 0 1 13.085 48.842l-31.541 54.499a35.72 35.72 0 0 1-48.747 13.062l-25.553-14.717a35.72 35.72 0 0 1-13.085-48.843L728.17 78.48a35.72 35.72 0 0 1 48.747-13.062zM646.465 531.61H538.66l20.194-141.122a8.49 8.49 0 0 0-14.765-6.62L371.081 585.621a8.49 8.49 0 0 0 6.454 13.931H485.34l-20.194 141.121a8.49 8.49 0 0 0 14.765 6.62l173.008-201.751a8.49 8.49 0 0 0-6.454-13.931z" fill="red" p-id="37638"></path></svg>