<?xml version="1.0" standalone="no"?><!DOCTYPE svg PUBLIC "-//W3C//DTD SVG 1.1//EN" "http://www.w3.org/Graphics/SVG/1.1/DTD/svg11.dtd"><svg t="1577955209884" class="icon" viewBox="0 0 1024 1024" version="1.1" xmlns="http://www.w3.org/2000/svg" p-id="1497" xmlns:xlink="http://www.w3.org/1999/xlink" width="40" height="40"><defs><style type="text/css"></style></defs><path d="M810.666667 640a64 64 0 0 1 64 64v128a64 64 0 0 1-64 64h-149.333334a64 64 0 0 1-64-64v-128a64 64 0 0 1 64-64h149.333334zM341.333333 192v85.333333a64 64 0 0 0 60.245334 63.893334L405.333333 341.333333h213.333334a64 64 0 0 0 63.893333-60.245333L682.666667 277.333333V192h42.666666a64 64 0 0 1 64 64l-0.021333 341.333333H618.666667a64 64 0 0 0-63.893334 60.245334L554.666667 661.333333v192H298.666667a64 64 0 0 1-64-64V256a64 64 0 0 1 64-64h42.666666z m469.333334 512h-149.333334v128h149.333334v-128z m-21.333334 32v64h-105.898666v-64H789.333333zM554.666667 533.333333h-192v64h192v-64z m106.666666-128H362.666667v64h298.666666v-64zM576 128a64 64 0 0 1 64 64v42.666667a64 64 0 0 1-64 64h-128a64 64 0 0 1-64-64V192a64 64 0 0 1 64-64h128z m0 64h-128v42.666667h128V192z" p-id="1498"></path></svg>