<?xml version="1.0" standalone="no"?><!DOCTYPE svg PUBLIC "-//W3C//DTD SVG 1.1//EN"
        "http://www.w3.org/Graphics/SVG/1.1/DTD/svg11.dtd">
<svg t="1577955200801" class="icon" viewBox="0 0 1024 1024" version="1.1" xmlns="http://www.w3.org/2000/svg" p-id="1233"
     xmlns:xlink="http://www.w3.org/1999/xlink" width="40" height="40">
    <defs>
        <style type="text/css"></style>
    </defs>
    <path d="M539.242667 162.154667l277.333333 130.517333A64 64 0 0 1 853.333333 350.570667v79.850666h-60.245333V671.36H853.333333v116.693333a64 64 0 0 1-64 64H234.666667a64 64 0 0 1-64-64v-116.693333h60.224V430.421333H170.666667v-79.850666a64 64 0 0 1 36.757333-57.898667l277.333333-130.517333a64 64 0 0 1 54.485334 0z m-147.712 268.266666h-96.64v240.746667h96.618666V430.421333z m64 0l-0.021334 240.746667h116.714667V430.421333h-116.693333z m180.693333 240.746667h92.864V430.421333h-92.842667l-0.021333 240.746667z"
          p-id="1234"></path>
</svg>
