<?xml version="1.0" standalone="no"?><!DOCTYPE svg PUBLIC "-//W3C//DTD SVG 1.1//EN" "http://www.w3.org/Graphics/SVG/1.1/DTD/svg11.dtd"><svg t="1590733355389" class="icon" viewBox="0 0 1088 1024" version="1.1" xmlns="http://www.w3.org/2000/svg" p-id="13575" xmlns:xlink="http://www.w3.org/1999/xlink" width="212.5" height="200"><defs><style type="text/css"></style></defs><path d="M1064.576 828.032L638.528 69.76c-52.16-92.672-137.216-92.672-189.376 0L23.168 828.032C-28.992 920.896 13.696 996.48 117.76 996.48h852.352c104.064 0 146.688-75.52 94.528-168.448h-0.064zM485.248 284.928c14.72-16.832 36.224-26.24 58.56-25.6 23.744 0 43.2 8.32 58.56 25.152 15.488 17.28 23.68 39.872 22.912 63.104 0 21.76-31.808 181.632-42.432 297.856H506.24c-9.28-116.224-43.776-276.096-43.776-297.856-0.064-24.896 7.488-45.824 22.72-62.72z m116.032 552.832a78.272 78.272 0 0 1-57.472 24.256 78.272 78.272 0 0 1-57.408-24.256 79.488 79.488 0 0 1-24.128-58.432c0-22.72 8-42.432 24.128-58.88a77.44 77.44 0 0 1 57.408-24.704c22.144 0 41.344 8.192 57.472 24.64 15.616 15.616 24.32 36.864 24 58.88 0.384 22.016-8.32 43.2-24 58.496z" fill="#c97a21" p-id="13576"></path></svg>