<?xml version="1.0" standalone="no"?><!DOCTYPE svg PUBLIC "-//W3C//DTD SVG 1.1//EN" "http://www.w3.org/Graphics/SVG/1.1/DTD/svg11.dtd"><svg t="1583113885426" class="icon" viewBox="0 0 1024 1024" version="1.1" xmlns="http://www.w3.org/2000/svg" p-id="24762" xmlns:xlink="http://www.w3.org/1999/xlink" width="40" height="40"><defs><style type="text/css"></style></defs><path d="M893.456828 709.055005" p-id="24763" fill="#cdcdcd"></path><path d="M491.889987 337.939709" p-id="24764" fill="#cdcdcd"></path><path d="M568.154951 338.993714" p-id="24765" fill="#cdcdcd"></path><path d="M926.433894 102.518908l-9.117658-56.634882L887.48379 94.964862c-58.126862 95.54917-183.065386 154.750503-315.334875 217.307258-54.80214 25.919323-111.472837 52.930513-164.942633 83.041298C288.112883 458.820823 188.917674 595.776032 252.569366 745.496985c0.523933 1.234107 1.193175 2.465145 1.749854 3.699252-64.305585 30.242791-111.689778 87.848791-137.541563 167.82631-3.593851 11.111059 2.509147 23.037692 13.620206 26.631544 2.158153 0.691755 4.357238 1.032516 6.505158 1.032516 8.93244 0 17.22429-5.699816 20.126386-14.652721 22.931269-70.946842 62.897515-123.041314 118.825292-147.891282 40.164768 54.507428 112.851231 97.16804 208.901821 97.16804 0.010233 0 0.010233 0 0.020466 0 67.895343 0 173.214017-21.571295 289.405319-137.762597l1.146103-0.218988C961.378777 523.040451 949.864536 248.079098 926.433894 102.518908zM743.67857 711.88547c-83.695191 83.488483-173.214017 124.447337-258.901585 124.447337-0.010233 0-0.010233 0-0.020466 0-99.329263 0-169.806407-56.210209-193.257515-111.363344C237.96781 599.049588 321.032644 486.786759 427.538353 429.992241c52.581566-29.605272 108.560508-55.085596 162.691359-80.684624 118.143771-55.885821 230.690056-110.61326 301.291021-191.385888C907.093407 303.358099 898.481262 529.779945 743.67857 711.88547z" p-id="24766" fill="#cdcdcd"></path></svg>