<?xml version="1.0" standalone="no"?><!DOCTYPE svg PUBLIC "-//W3C//DTD SVG 1.1//EN" "http://www.w3.org/Graphics/SVG/1.1/DTD/svg11.dtd"><svg t="1582878994702" class="icon" viewBox="0 0 1024 1024" version="1.1" xmlns="http://www.w3.org/2000/svg" p-id="26682" xmlns:xlink="http://www.w3.org/1999/xlink" width="40" height="40"><defs><style type="text/css"></style></defs><path d="M890.966613 806.481941c0 97.565083-1.701758 99.178837-90.738607 99.178837L219.763704 905.660778c-100.816127 0-100.641141 2.618641-100.641141-88.448448l-0.174985-578.828035c0-91.938945 0-90.281189 100.816127-90.281189l337.608158 0L557.371862 95.057983l-340.443739 0C91.115696 95.057983 65.290517 111.766526 65.290517 238.232846l0 577.344241c0 142.956899 25.825179 143.131885 151.637606 143.131885l586.135464 0c125.899408 0 141.866055-26.480094 141.866055-152.968927L944.929642 492.169349l-53.962006 0L890.967636 806.481941 890.966613 806.481941 890.966613 806.481941zM890.966613 806.481941" p-id="26683"></path><path d="M939.82539 161.28022l-77.127611-77.127611c-25.171286-25.148773-48.030923-25.148773-73.201186 0L344.833211 527.854083c-0.653893 0.653893-1.264806 1.330298-1.831718 2.02717-4.057409 3.228531-7.153934 7.721869-8.637728 13.109576l-19.543102 123.761722c-3.752464 13.545504 4.187369 27.549449 17.755386 31.278377 2.921539 0.807389 5.845125 1.069355 8.680706 0.850367 2.093684 0.152473 4.231371 0.065492 6.369058-0.326435l138.812509-16.22759c6.282077-1.112334 11.604292-4.450359 15.355733-9.052167 0.741897-0.589424 1.482771-1.221828 2.137687-1.919722L939.869393 234.458893C964.996676 209.331609 964.996676 186.428993 939.82539 161.28022L939.82539 161.28022zM459.871247 639.881552l-83.104743 13.43601c0 0-9.422603 2.224668-13.262048-2.028193-2.87856-3.27151 0.785899-11.537777 0.785899-11.537777l20.721951-73.005734 74.90192 73.070202L459.871247 639.881552 459.871247 639.881552zM497.954611 601.906659l-76.16775-74.270541 311.433008-308.815391 75.120908 73.2677L497.954611 601.906659 497.954611 601.906659zM894.936017 205.64566l-48.640814 48.53132-74.989925-73.135694 49.688679-49.273217c5.322216-5.300726 13.872962-5.300726 19.195178 0l54.747905 54.747905C900.214231 191.795211 900.214231 200.366424 894.936017 205.64566L894.936017 205.64566zM894.936017 205.64566" p-id="26684"></path></svg>