<?xml version="1.0" standalone="no"?><!DOCTYPE svg PUBLIC "-//W3C//DTD SVG 1.1//EN" "http://www.w3.org/Graphics/SVG/1.1/DTD/svg11.dtd"><svg t="1583113656282" class="icon" viewBox="0 0 1024 1024" version="1.1" xmlns="http://www.w3.org/2000/svg" p-id="22679" xmlns:xlink="http://www.w3.org/1999/xlink" width="40" height="40"><defs><style type="text/css"></style></defs><path d="M676.053333 99.84a128 128 0 0 1 106.368 56.746667l4.48 7.253333 164.096 284.16a128 128 0 0 1 4.266667 119.978667l-4.266667 8.021333-164.096 284.16a128 128 0 0 1-102.314666 63.744l-8.533334 0.256h-328.106666a128 128 0 0 1-106.368-56.746667l-4.48-7.253333L72.96 576a128 128 0 0 1-4.266667-119.978667l4.266667-8.021333 164.096-284.16a128 128 0 0 1 102.314667-63.744l8.533333-0.256h328.106667z m0 85.333333h-328.106666a42.666667 42.666667 0 0 0-34.176 17.109334l-2.773334 4.224-164.096 284.16a42.666667 42.666667 0 0 0-2.474666 37.546666l2.474666 5.12 164.096 284.16a42.666667 42.666667 0 0 0 31.914667 21.034667l5.034667 0.298667h328.106666a42.666667 42.666667 0 0 0 34.176-17.109334l2.773334-4.224 164.096-284.16a42.666667 42.666667 0 0 0 2.474666-37.546666l-2.474666-5.12-164.096-284.16a42.666667 42.666667 0 0 0-31.914667-21.034667l-5.034667-0.298667zM512 298.666667a213.333333 213.333333 0 1 1 0 426.666666 213.333333 213.333333 0 0 1 0-426.666666z m0 85.333333a128 128 0 1 0 0 256 128 128 0 0 0 0-256z" p-id="22680" fill="#cdcdcd"></path></svg>