<?xml version="1.0" standalone="no"?><!DOCTYPE svg PUBLIC "-//W3C//DTD SVG 1.1//EN" "http://www.w3.org/Graphics/SVG/1.1/DTD/svg11.dtd"><svg t="1582879136198" class="icon" viewBox="0 0 1024 1024" version="1.1" xmlns="http://www.w3.org/2000/svg" p-id="29168" xmlns:xlink="http://www.w3.org/1999/xlink" width="40" height="40"><defs><style type="text/css"></style></defs><path d="M409.6 640c-127.04 0-230.4-103.36-230.4-230.4s103.36-230.4 230.4-230.4 230.4 103.36 230.4 230.4-103.36 230.4-230.4 230.4z m0-409.6c-98.816 0-179.2 80.384-179.2 179.2s80.384 179.2 179.2 179.2 179.2-80.384 179.2-179.2-80.384-179.2-179.2-179.2z" p-id="29169"></path><path d="M793.6 1024a25.6 25.6 0 0 1-25.6-25.6c0-197.6192-160.7808-358.4-358.4-358.4S51.2 800.7808 51.2 998.4a25.6 25.6 0 0 1-51.2 0c0-225.856 183.744-409.6 409.6-409.6s409.6 183.744 409.6 409.6a25.6 25.6 0 0 1-25.6 25.6zM742.4 409.6c-14.1312 0-26.112-11.4688-26.112-25.6s10.944-25.6 25.088-25.6H742.4c84.6976 0 153.6-68.9024 153.6-153.6S827.0976 51.2 742.4 51.2a152.6272 152.6272 0 0 0-137.4464 85.1328 25.6128 25.6128 0 0 1-45.8368-22.8224C593.9456 43.4944 664.192 0 742.4 0c112.9216 0 204.8 91.8784 204.8 204.8s-91.8784 204.8-204.8 204.8z" p-id="29170"></path><path d="M998.4 517.248a25.5744 25.5744 0 0 1-18.304-7.6928C917.0176 445.0944 832.6016 409.6 742.4 409.6c-14.1312 0-26.112-11.4688-26.112-25.6s10.944-25.6 25.088-25.6H742.4c104.0896 0 201.4976 40.96 274.304 115.3408A25.6 25.6 0 0 1 998.4 517.248zM409.6 1024c-5.824 0-11.648-1.9712-16.384-5.9392l-76.8-64a25.5872 25.5872 0 0 1-7.5776-28.6464l76.8-204.8a25.6 25.6 0 0 1 47.936 0l76.8 204.8a25.5872 25.5872 0 0 1-7.5776 28.6464l-76.8 64c-4.7488 3.968-10.5728 5.9392-16.3968 5.9392z m-46.4512-97.6256L409.6 965.0688l46.4512-38.6944L409.6 802.5088l-46.4512 123.8656z" p-id="29171"></path></svg>