<?xml version="1.0" standalone="no"?><!DOCTYPE svg PUBLIC "-//W3C//DTD SVG 1.1//EN" "http://www.w3.org/Graphics/SVG/1.1/DTD/svg11.dtd"><svg t="1583111244286" class="icon" viewBox="0 0 1024 1024" version="1.1" xmlns="http://www.w3.org/2000/svg" p-id="3287" xmlns:xlink="http://www.w3.org/1999/xlink" width="40" height="40"><defs><style type="text/css"></style></defs><path d="M473.6 490.666667h-181.333333C177.066667 490.666667 85.333333 396.8 85.333333 281.6s93.866667-209.066667 209.066667-209.066667 209.066667 93.866667 209.066667 209.066667v181.333333c-2.133333 14.933333-14.933333 27.733333-29.866667 27.733334zM292.266667 128c-85.333333 0-153.6 70.4-153.6 155.733333s70.4 153.6 153.6 153.6H448v-153.6C448 196.266667 377.6 128 292.266667 128zM740.266667 490.666667h-181.333334c-14.933333 0-25.6-12.8-25.6-25.6v-181.333334c0-115.2 93.866667-209.066667 209.066667-209.066666s209.066667 93.866667 209.066667 209.066666-96 206.933333-211.2 206.933334z m-155.733334-53.333334h153.6c85.333333 0 153.6-70.4 153.6-153.6S825.6 128 740.266667 128s-153.6 70.4-153.6 155.733333v153.6zM292.266667 938.666667C177.066667 938.666667 85.333333 846.933333 85.333333 731.733333s93.866667-209.066667 209.066667-209.066666h181.333333c14.933333 0 25.6 12.8 25.6 25.6v181.333333c0 117.333333-93.866667 209.066667-209.066666 209.066667z m0-362.666667c-85.333333 0-153.6 70.4-153.6 153.6s70.4 153.6 153.6 153.6 153.6-70.4 153.6-153.6V576h-153.6zM740.266667 938.666667c-115.2 0-209.066667-93.866667-209.066667-209.066667v-181.333333c0-14.933333 12.8-25.6 25.6-25.6h181.333333c115.2 0 209.066667 93.866667 209.066667 209.066666S855.466667 938.666667 740.266667 938.666667z m-155.733334-362.666667v153.6c0 85.333333 70.4 153.6 153.6 153.6s153.6-70.4 153.6-153.6-66.133333-153.6-151.466666-153.6h-155.733334z" fill="" p-id="3288"></path></svg>