<?xml version="1.0" standalone="no"?><!DOCTYPE svg PUBLIC "-//W3C//DTD SVG 1.1//EN" "http://www.w3.org/Graphics/SVG/1.1/DTD/svg11.dtd"><svg t="1583114021383" class="icon" viewBox="0 0 1025 1024" version="1.1" xmlns="http://www.w3.org/2000/svg" p-id="27537" xmlns:xlink="http://www.w3.org/1999/xlink" width="40.0390625" height="40"><defs><style type="text/css"></style></defs><path d="M672.1 353.7c55.5 0 100.6-45.2 100.6-100.7s-45.2-100.7-100.6-100.7c-55.5 0-100.7 45.2-100.7 100.7s45.2 100.7 100.7 100.7z m0-161.9c33.8 0 61.3 27.5 61.3 61.3s-27.5 61.3-61.3 61.3-61.3-27.5-61.3-61.3 27.5-61.3 61.3-61.3z" fill="#cdcdcd" p-id="27538"></path><path d="M858.1 171.4c-30-73.8-101.9-126-186.4-126-86.7 0-160 55.2-188.5 132.1l-146 36.6L1 133.9v770l337.2 62.9 336-90 350.8 95.6V210.1l-166.9-38.7z m-186-86.6c89.6 0 162.5 72.8 162.5 162.3 0 112-122.2 238-162.8 276.9-40.5-38.9-162.1-164.9-162.1-276.9 0-89.5 72.8-162.3 162.4-162.3zM40 183.8l276 65.5v673.2L40 871.2V183.8z m946 737.1l-276-80.1v-143c0-10.9-8.6-19.7-19.5-19.7s-19.5 8.8-19.5 19.7v143.9l-316 79.9V250.3l117.7-29.6c-1.2 8.7-2.6 17.4-2.6 26.4 0 151.5 180.8 311.8 188.5 318.6l13 11.4 13-11.3c7.7-6.7 189.3-167 189.3-318.6 0-11.2-2.2-21.9-3.9-32.6l116 26.9v679.4z" fill="#cdcdcd" p-id="27539"></path></svg>