<?xml version="1.0" standalone="no"?><!DOCTYPE svg PUBLIC "-//W3C//DTD SVG 1.1//EN" "http://www.w3.org/Graphics/SVG/1.1/DTD/svg11.dtd"><svg t="1583111421540" class="icon" viewBox="0 0 1024 1024" version="1.1" xmlns="http://www.w3.org/2000/svg" p-id="5580" xmlns:xlink="http://www.w3.org/1999/xlink" width="40" height="40"><defs><style type="text/css"></style></defs><path d="M512 330.472727a23.272727 23.272727 0 0 1-23.272727-23.272727V256a23.272727 23.272727 0 0 1 46.545454 0v51.2a23.272727 23.272727 0 0 1-23.272727 23.272727zM512 729.367273a97.512727 97.512727 0 1 1 97.512727-97.28A97.512727 97.512727 0 0 1 512 729.367273zM512 581.818182a50.967273 50.967273 0 1 0 50.967273 50.967273A50.967273 50.967273 0 0 0 512 581.818182z" p-id="5581"></path><path d="M512 556.450909a23.272727 23.272727 0 0 1-23.272727-23.272727v-74.007273a23.272727 23.272727 0 0 1 46.545454 0v74.007273a23.272727 23.272727 0 0 1-23.272727 23.272727zM700.276364 421.469091a23.272727 23.272727 0 0 1-16.290909-39.563636l37.46909-37.236364a23.272727 23.272727 0 0 1 32.814546 0 23.272727 23.272727 0 0 1 0 33.047273l-37.469091 37.003636a23.272727 23.272727 0 0 1-16.523636 6.749091zM317.672727 421.469091a23.272727 23.272727 0 0 1-16.523636-6.749091l-37.003636-37.003636a23.272727 23.272727 0 1 1 33.047272-33.047273l37.003637 37.236364a23.272727 23.272727 0 0 1 0 32.814545 23.272727 23.272727 0 0 1-16.523637 6.749091zM819.2 600.436364H768a23.272727 23.272727 0 0 1 0-46.545455h51.2a23.272727 23.272727 0 0 1 0 46.545455zM251.345455 600.436364H198.981818a23.272727 23.272727 0 0 1 0-46.545455h52.363637a23.272727 23.272727 0 0 1 0 46.545455z" p-id="5582"></path><path d="M770.56 852.712727H254.138182a122.647273 122.647273 0 0 1-107.054546-62.836363A418.909091 418.909091 0 1 1 930.909091 586.24a415.650909 415.650909 0 0 1-53.294546 203.636364 122.414545 122.414545 0 0 1-107.054545 62.836363zM512 214.574545a363.985455 363.985455 0 0 0-41.890909 2.327273A372.363636 372.363636 0 0 0 187.578182 768a76.567273 76.567273 0 0 0 66.56 39.098182h516.421818A75.869091 75.869091 0 0 0 837.818182 768a369.105455 369.105455 0 0 0 46.545454-180.829091 372.363636 372.363636 0 0 0-123.810909-277.643636A368.407273 368.407273 0 0 0 512 214.574545z" p-id="5583"></path></svg>