<?xml version="1.0" standalone="no"?><!DOCTYPE svg PUBLIC "-//W3C//DTD SVG 1.1//EN" "http://www.w3.org/Graphics/SVG/1.1/DTD/svg11.dtd"><svg t="1583110796105" class="icon" viewBox="0 0 1024 1024" version="1.1" xmlns="http://www.w3.org/2000/svg" p-id="2108" xmlns:xlink="http://www.w3.org/1999/xlink" width="40" height="40"><defs><style type="text/css"></style></defs><path d="M414.976 1016.192l-268.074667-278.314667 0.085334-571.690666s0.128-4.138667 0.426666-8.277334a167.253333 167.253333 0 0 1 10.794667-47.104A164.010667 164.010667 0 0 1 253.610667 17.706667C270.250667 11.605333 287.616 8.533333 305.322667 7.850667a16279.466667 16279.466667 0 0 1 413.354666 0c17.706667 0.682667 35.072 3.754667 51.712 9.856a164.010667 164.010667 0 0 1 95.402667 93.098666c6.997333 17.749333 11.221333 55.381333 11.221333 55.381334v691.626666s-3.712 35.029333-9.813333 51.669334a164.010667 164.010667 0 0 1-96.810667 96.810666 161.408 161.408 0 0 1-55.893333 9.898667h-299.52z m-162.133333-342.314667c5.589333 0.085333 5.589333 0.085333 11.178666 0.298667a224.256 224.256 0 0 1 76.586667 17.578667 227.029333 227.029333 0 0 1 137.216 185.642666c0.768 7.552 1.066667 15.104 1.152 22.698667v52.096c79.36 0 158.762667 0.938667 238.08-0.042667a102.101333 102.101333 0 0 0 35.754667-7.68 99.84 99.84 0 0 0 54.314666-57.002666c3.669333-10.069333 5.930667-31.274667 5.930667-31.274667V167.808s-2.261333-21.205333-5.930667-31.274667a99.84 99.84 0 0 0-56.533333-57.898666 101.248 101.248 0 0 0-33.536-6.784c-135.68-1.706667-271.445333-0.042667-407.168-0.042667a103.381333 103.381333 0 0 0-32 5.162667A99.84 99.84 0 0 0 216.874667 136.533333c-4.053333 11.050667-5.973333 34.261333-5.973334 34.261334v503.082666h41.941334z m162.304 248.064c-0.042667-8.533333-0.085333-17.109333-0.213334-25.642666-0.170667-4.181333-0.128-4.181333-0.426666-8.32a167.253333 167.253333 0 0 0-10.794667-47.104 164.096 164.096 0 0 0-95.402667-93.098667 161.706667 161.706667 0 0 0-55.893333-9.898667h-12.672l175.402667 184.064z" p-id="2109"></path><path d="M680.106667 272.085333s12.288 2.602667 17.408 6.528c2.773333 2.133333 5.162667 4.693333 7.125333 7.594667a32.426667 32.426667 0 0 1-1.237333 37.290667 32.597333 32.597333 0 0 1-9.386667 8.192c-4.309333 2.517333-13.909333 4.224-13.909333 4.224l-350.762667 0.085333s-12.416-1.834667-17.749333-5.376a32.341333 32.341333 0 0 1-7.637334-46.122667 32.768 32.768 0 0 1 9.386667-8.234666c4.352-2.474667 13.909333-4.181333 13.909333-4.181334h352.853334zM680.106667 410.581333s12.288 2.645333 17.408 6.570667c2.773333 2.090667 5.162667 4.693333 7.125333 7.594667a32.128 32.128 0 0 1-10.624 45.482666c-4.309333 2.517333-13.909333 4.224-13.909333 4.224l-350.762667 0.085334s-12.416-1.834667-17.749333-5.418667a31.914667 31.914667 0 0 1 1.749333-54.314667c4.352-2.474667 13.909333-4.224 13.909333-4.224h352.853334zM680.106667 549.12s12.288 2.645333 17.408 6.570667a32.256 32.256 0 0 1 5.888 44.842666 32.128 32.128 0 0 1-9.386667 8.234667c-4.309333 2.517333-13.909333 4.224-13.909333 4.224l-350.762667 0.085333s-12.416-1.834667-17.749333-5.418666a31.914667 31.914667 0 0 1 1.749333-54.314667c4.352-2.474667 13.909333-4.224 13.909333-4.224h352.853334z" p-id="2110"></path></svg>