<?xml version="1.0" standalone="no"?><!DOCTYPE svg PUBLIC "-//W3C//DTD SVG 1.1//EN" "http://www.w3.org/Graphics/SVG/1.1/DTD/svg11.dtd"><svg t="1582879102695" class="icon" viewBox="0 0 1024 1024" version="1.1" xmlns="http://www.w3.org/2000/svg" p-id="27377" xmlns:xlink="http://www.w3.org/1999/xlink" width="40" height="40"><defs><style type="text/css"></style></defs><path d="M507.398192 955.662589c-247.033279 0-447.241091-200.233394-447.241091-447.233927 0-247.019976 200.207811-447.233927 447.241091-447.233927 246.974951 0 447.233927 200.213951 447.233927 447.233927C954.632119 755.430218 754.374166 955.662589 507.398192 955.662589zM507.398192 131.084501c-208.417797 0-383.241474 169.003112-383.241474 377.440351 0 208.378911 174.919868 383.343805 383.337665 383.343805 208.430076 0 383.349945-174.96387 383.349945-383.343805C890.844328 300.087613 715.822129 131.084501 507.398192 131.084501zM443.609377 572.414975 443.609377 316.859601l63.883983 0 0 191.671391 191.671391 0 0 63.883983L443.609377 572.414975z" p-id="27378"></path></svg>