<?xml version="1.0" encoding="UTF-8" standalone="no"?>
<!DOCTYPE svg PUBLIC "-//W3C//DTD SVG 1.1//EN" "http://www.w3.org/Graphics/SVG/1.1/DTD/svg11.dtd">
<svg width="100%" height="100%" viewBox="0 0 40 40" version="1.1" xmlns="http://www.w3.org/2000/svg" xmlns:xlink="http://www.w3.org/1999/xlink" xml:space="preserve" xmlns:serif="http://www.serif.com/" style="fill-rule:evenodd;clip-rule:evenodd;stroke-linejoin:round;stroke-miterlimit:2;">
    <g transform="matrix(0.933333,0,0,0.933333,1.33333,1.33333)">
        <path d="M33.75,7.5L27.5,7.5L27.5,5L25,5L25,7.5L15,7.5L15,5L12.5,5L12.5,7.5L6.25,7.5C5.563,7.5 5,8.063 5,8.75L5,33.75C5,34.438 5.563,35 6.25,35L33.75,35C34.438,35 35,34.438 35,33.75L35,8.75C35,8.063 34.438,7.5 33.75,7.5ZM32.5,32.5L7.5,32.5L7.5,15L32.5,15L32.5,32.5ZM15.75,27.625L12.531,24.406L14.313,22.625L17.5,25.844L25.719,17.625L27.5,19.406L19.281,27.625L17.5,29.375L15.75,27.625Z" style="fill-rule:nonzero;"/>
    </g>
</svg>
