<?xml version="1.0" standalone="no"?><!DOCTYPE svg PUBLIC "-//W3C//DTD SVG 1.1//EN" "http://www.w3.org/Graphics/SVG/1.1/DTD/svg11.dtd"><svg t="1590052003223" class="icon" viewBox="0 0 1024 1024" version="1.1" xmlns="http://www.w3.org/2000/svg" p-id="56418" xmlns:xlink="http://www.w3.org/1999/xlink" width="200" height="200"><defs><style type="text/css"></style></defs><path d="M109.7216 597.6064H225.792c44.8 0 85.7088 25.2928 105.7792 65.3312 11.3152 22.6816 34.56 37.0688 59.904 37.0688h242.6368c25.3952 0 48.64-14.336 59.904-37.0688a118.2208 118.2208 0 0 1 105.7792-65.3312h114.432l-122.2144-407.552A51.2 51.2 0 0 0 743.0144 153.6H280.9856a51.2 51.2 0 0 0-49.0496 36.5056l-122.2144 407.5008z m-7.3216 51.2V819.2a51.2 51.2 0 0 0 51.2 51.2h716.8a51.2 51.2 0 0 0 51.2-51.2v-170.3936h-121.7536c-25.3952 0-48.5888 14.336-59.904 37.0176a118.2208 118.2208 0 0 1-105.7792 65.3824H391.5264a118.2208 118.2208 0 0 1-105.728-65.3824 67.0208 67.0208 0 0 0-59.904-37.0176H102.4zM280.9856 102.4h462.0288a102.4 102.4 0 0 1 98.0992 72.96l123.0336 410.2656a204.8 204.8 0 0 1 8.6528 58.88V819.2a102.4 102.4 0 0 1-102.4 102.4H153.6a102.4 102.4 0 0 1-102.4-102.4v-174.7456a204.8 204.8 0 0 1 8.6528-58.88l123.0336-410.2144A102.4 102.4 0 0 1 280.9856 102.4z" fill="#fff" p-id="56419"></path></svg>