<?xml version="1.0" standalone="no"?><!DOCTYPE svg PUBLIC "-//W3C//DTD SVG 1.1//EN"
        "http://www.w3.org/Graphics/SVG/1.1/DTD/svg11.dtd">
<svg t="1590051704950" class="icon" viewBox="0 0 1024 1024" version="1.1" xmlns="http://www.w3.org/2000/svg"
     p-id="49372" xmlns:xlink="http://www.w3.org/1999/xlink" width="200" height="200">
    <defs>
        <style type="text/css"></style>
    </defs>
    <path d="M256.9 727.6c-1.5 0-3-0.1-4.5-0.4-9.9-1.9-17.5-9.7-19.2-19.6-0.3-2-8.3-50.8-2.3-116.1 3.5-38.5 11.2-75 22.8-108.4 14.7-42.3 35.6-79.7 62.4-111.3 66.9-78.9 168.2-121.1 301.5-125.6v-159c0-9.7 5.9-18.5 14.8-22.2 9-3.7 19.3-1.6 26.2 5.3l295.2 296.9c9.3 9.4 9.3 24.5 0 33.9l-296.6 297c-6.9 6.9-17.2 8.9-26.2 5.2s-14.8-12.5-14.8-22.2V527.3c-23.3-0.6-64.1 0.9-111 13.5-96.9 26-173.5 85-227.8 175.2-4.3 7.3-12.2 11.6-20.5 11.6z m408.8-567.7V289c0 2.9-2.4 5.1-5.2 5.1-139.9-3.6-243.5 33-307.7 108.7-56.6 66.8-72.4 151.9-75.4 213.8-0.3 5.6 6.7 8.5 10.5 4.3 22.4-25.2 47.2-47.3 74.2-66.1 39.9-27.7 84.6-48.2 132.8-60.9 82.1-21.6 146-13.2 148.7-12.8 11.9 1.6 20.7 11.8 20.7 23.8v103.8c0 5.3 6.5 8 10.2 4.2l224.3-224.6c2.3-2.3 2.3-6.1 0-8.5L675.9 155.7c-3.8-3.8-10.2-1.1-10.2 4.2z"
          p-id="49373"></path>
    <path d="M935.6 960H88.8c-13.3 0-24.1-10.8-24.1-24.1V87.7c0-13.3 10.8-24.1 24.1-24.1h289.3c14.2 0 25.6 11.6 24.6 25.8-0.9 12.4-11.3 22.2-23.9 22.2H118.7c-3.3 0-6 2.7-6 6V906c0 3.3 2.7 6 6 6h787c3.3 0 6-2.7 6-6V664.7c0-14.2 11.6-25.6 25.8-24.6 12.4 0.9 22.2 11.3 22.2 23.9v271.9c0 13.3-10.8 24.1-24.1 24.1z"
          p-id="49374"></path>
</svg>