<?xml version="1.0" standalone="no"?><!DOCTYPE svg PUBLIC "-//W3C//DTD SVG 1.1//EN" "http://www.w3.org/Graphics/SVG/1.1/DTD/svg11.dtd"><svg t="1590051821166" class="icon" viewBox="0 0 1024 1024" version="1.1" xmlns="http://www.w3.org/2000/svg" p-id="51309" xmlns:xlink="http://www.w3.org/1999/xlink" width="200" height="200"><defs><style type="text/css"></style></defs><path d="M577.828571 577.828571c-7.314286 0-21.942857 7.314286-29.257142 7.314286h-219.428572c-21.942857 0-36.571429-14.628571-36.571428-36.571428s14.628571-36.571429 36.571428-36.571429H512V329.142857c0-21.942857 14.628571-36.571429 36.571429-36.571428s36.571429 14.628571 36.571428 36.571428v219.428572c0 7.314286-7.314286 21.942857-7.314286 29.257142zM804.571429 804.571429V694.857143c0-21.942857 14.628571-36.571429 36.571428-36.571429s36.571429 14.628571 36.571429 36.571429V804.571429h109.714285c21.942857 0 36.571429 14.628571 36.571429 36.571428s-14.628571 36.571429-36.571429 36.571429H877.714286v109.714285c0 21.942857-14.628571 36.571429-36.571429 36.571429s-36.571429-14.628571-36.571428-36.571429V877.714286H694.857143c-21.942857 0-36.571429-14.628571-36.571429-36.571429s14.628571-36.571429 36.571429-36.571428H804.571429z m219.428571-292.571429c0 21.942857-14.628571 36.571429-36.571429 36.571429S950.857143 533.942857 950.857143 512c0-241.371429-197.485714-438.857143-438.857143-438.857143S73.142857 270.628571 73.142857 512s197.485714 438.857143 438.857143 438.857143c21.942857 0 36.571429 14.628571 36.571429 36.571428s-14.628571 36.571429-36.571429 36.571429c-285.257143 0-512-226.742857-512-512s226.742857-512 512-512 512 226.742857 512 512z" p-id="51310"></path></svg>