<?xml version="1.0" standalone="no"?><!DOCTYPE svg PUBLIC "-//W3C//DTD SVG 1.1//EN" "http://www.w3.org/Graphics/SVG/1.1/DTD/svg11.dtd"><svg t="1590051913840" class="icon" viewBox="0 0 1024 1024" version="1.1" xmlns="http://www.w3.org/2000/svg" p-id="53337" xmlns:xlink="http://www.w3.org/1999/xlink" width="200" height="200"><defs><style type="text/css"></style></defs><path d="M656.4 807.3c-13.8 0-25 11.2-25 25v4.9c0 13.8 11.2 25 25 25s25-11.2 25-25v-4.9c0-13.8-11.1-25-25-25zM657.6 591.8c-13.8 0-25 11.2-25 25V750c0 13.8 11.2 25 25 25s25-11.2 25-25V616.8c0-13.8-11.2-25-25-25z" p-id="53338"></path><path d="M858.5 606.1V78.8c0-13.8-11.2-25-25-25H153.9c-13.8 0-25 11.2-25 25v827c0 13.8 11.2 25 25 25h372.6c38.5 25.6 83.8 39.4 131.1 39.4 63.4 0 123-24.7 167.9-69.5 44.8-44.8 69.5-104.5 69.5-167.9 0.1-45.6-12.7-89.2-36.5-126.7zM366 103.8h255.4v48.5H366v-48.5z m-187.1 0H316v73.5c0 13.8 11.2 25 25 25h305.4c13.8 0 25-11.2 25-25v-73.5h137.1v445.6c-42.4-35-95.2-54.1-150.9-54.1-63.4 0-123 24.7-167.9 69.5-44.8 44.8-69.5 104.5-69.5 167.9 0 54.5 18.2 106.1 51.8 148H178.9V103.8z m478.7 816.4c-103.3 0-187.4-84.1-187.4-187.4s84.1-187.4 187.4-187.4S845 629.5 845 732.8s-84 187.4-187.4 187.4z" p-id="53339"></path><path d="M338.3 330.4h319.4c13.8 0 25-11.2 25-25s-11.2-25-25-25H338.3c-13.8 0-25 11.2-25 25s11.2 25 25 25zM682.6 450.5c0-13.8-11.2-25-25-25H338.3c-13.8 0-25 11.2-25 25s11.2 25 25 25h319.4c13.7 0 24.9-11.2 24.9-25z" p-id="53340"></path></svg>