<?xml version="1.0" standalone="no"?><!DOCTYPE svg PUBLIC "-//W3C//DTD SVG 1.1//EN"
        "http://www.w3.org/Graphics/SVG/1.1/DTD/svg11.dtd">
<svg t="1590052120558" class="icon" viewBox="0 0 1090 1024" version="1.1" xmlns="http://www.w3.org/2000/svg"
     p-id="57894" xmlns:xlink="http://www.w3.org/1999/xlink" width="212.890625" height="200">
    <defs>
        <style type="text/css"></style>
    </defs>
    <path d="M1054.815052 421.925926a35.555556 35.555556 0 0 0 35.555555-35.555556v-120.888889a35.555556 35.555556 0 0 0-20.859259-32.474074L559.881719 3.081481a35.555556 35.555556 0 0 0-29.155556 0L20.859496 233.007407A35.555556 35.555556 0 0 0 0.000237 265.481481v120.888889a35.555556 35.555556 0 0 0 35.555556 35.555556h78.222222V782.222222H35.555793A35.555556 35.555556 0 0 0 0.000237 817.777778v170.666666a35.555556 35.555556 0 0 0 35.555556 35.555556h1019.259259a35.555556 35.555556 0 0 0 35.555555-35.555556v-170.666666a35.555556 35.555556 0 0 0-35.555555-35.555556h-78.222222V421.925926zM71.111348 288.474074l474.074074-213.333333 474.074074 213.333333v62.340741H71.111348zM580.740978 782.222222V421.925926h128V782.222222z m-71.111111-360.296296V782.222222h-128V421.925926z m-324.740741 0h125.62963V782.222222H184.889126zM1019.259496 952.888889H71.111348V853.333333h948.148148zM905.481719 782.222222h-125.62963V421.925926h125.62963z"
          fill="#fff" p-id="57895"></path>
</svg>