<?xml version="1.0" standalone="no"?><!DOCTYPE svg PUBLIC "-//W3C//DTD SVG 1.1//EN" "http://www.w3.org/Graphics/SVG/1.1/DTD/svg11.dtd"><svg t="1590053612776" class="icon" viewBox="0 0 1024 1024" version="1.1" xmlns="http://www.w3.org/2000/svg" p-id="59952" xmlns:xlink="http://www.w3.org/1999/xlink" width="200" height="200"><defs><style type="text/css"></style></defs><path d="M888.533333 106.666667H135.466667a74.666667 74.666667 0 0 0-74.666667 74.666666v593.493334a74.666667 74.666667 0 0 0 74.666667 74.666666H360.533333a95.36 95.36 0 0 0 6.4 7.253334l70.613334 70.613333a111.786667 111.786667 0 0 0 158.293333 0l70.613333-70.613333a95.146667 95.146667 0 0 0 6.4-7.253334h215.68a74.666667 74.666667 0 0 0 74.666667-74.666666V181.333333a74.666667 74.666667 0 0 0-74.666667-74.666666z m10.666667 668.16a10.666667 10.666667 0 0 1-10.666667 10.666666H637.653333l-87.04 96.426667a49.066667 49.066667 0 0 1-67.626666 0l-87.253334-96.426667H135.466667a10.666667 10.666667 0 0 1-10.666667-10.666666V181.333333a10.666667 10.666667 0 0 1 10.666667-10.666666h753.066666a10.666667 10.666667 0 0 1 10.666667 10.666666z" fill="#fff" p-id="59953"></path><path d="M266.666667 410.24h234.666666a32 32 0 0 0 0-64h-234.666666a32 32 0 0 0 0 64zM757.333333 538.24h-490.666666a32 32 0 0 0 0 64h490.666666a32 32 0 0 0 0-64z" fill="#fff" p-id="59954"></path></svg>